{"title":"Big.Hero.6.2014.DVDScr.XVID.AC3.HQ.Hive-CM8","uid":11679722,"size":1592475624,"categoryP":"video","categoryS":"movies","magnet":"?xt=urn:btih:aadbb1f3d09d87dfd0e6c2cf5ec046e8cfa66df7&amp;dn=Big.Hero.6.2014.DVDScr.XVID.AC3.HQ.Hive-CM8&amp;tr=udp%3A%2F%2Ftracker.openbittorrent.com%3A80&amp;tr=udp%3A%2F%2Fopen.demonii.com%3A1337&amp;tr=udp%3A%2F%2Ftracker.coppersurfer.tk%3A6969&amp;tr=udp%3A%2F%2Fexodus.desync.com%3A6969","seeders":0,"leechers":0,"uploader":"TvTeam","files":4,"time":1423029403,"description":" &lt;a href=&quot;https://www.torrenting.com&quot; rel=&quot;nofollow&quot; target=&quot;_NEW&quot;&gt;https://www.torrenting.com&lt;/a&gt;\n\nSign up is OPEN - for the time being. Come and have fun.\n\n---------------------------------------------------------------------\n\n.[center][IMG]http://img907.imageshack.us/img907/2289/cPqdSW.jpg[/IMG]\n\n\n[color=blue][size=3][b]Big.Hero.6.2014.DVDScr.XVID.AC3.HQ.Hive-CM8[/b][/size][/color]\n\nThx Hive\n\nCM8 Doing It Right The First Time\n\nSource: DVDScr\nthx m8\n\nEncode:\n\nquality was already nice, removed watermarks,fixed rgb, added brightness and added sharpness\ngot very nice and will do me till retail\nenjoy\n\nVideo: 720x304 @bitrate 1800 2pass\nAudio: English AC3 2.0 Stereo\nSample: yes included\n\n\nPS: still need the &quot;black and white&quot; screener, does anyone have it?\n &lt;a href=&quot;\nhttp://www.imdb.com/title/tt2245084/&quot; rel=&quot;nofollow&quot; target=&quot;_NEW&quot;&gt;\nhttp://www.imdb.com/title/tt2245084/&lt;/a&gt;\n\n\nGeneral\nComplete name                  : Big.Hero.6.2014.DVDScr.XVID.AC3.HQ.Hive-CM8.avi\nFormat                         : AVI\nFormat/Info                    : Audio Video Interleave\nFile size                      : 1.47 GiB\nDuration                       : 1h 41mn\nOverall bit rate               : 2 068 Kbps\nWriting application            : Nandub v1.0rc2\nWriting library                : Nandub build 1853/release\n\nVideo\nID                             : 0\nFormat                         : MPEG-4 Visual\nFormat profile                 : Advanced Simple@L5\nFormat settings, BVOP          : 2\nFormat settings, QPel          : Yes\nFormat settings, GMC           : No warppoints\nFormat settings, Matrix        : Default (H.263)\nMuxing mode                    : Packed bitstream\nCodec ID                       : XVID\nCodec ID/Hint                  : XviD\nDuration                       : 1h 41mn\nBit rate                       : 1 800 Kbps\nWidth                          : 720 pixels\nHeight                         : 304 pixels\nDisplay aspect ratio           : 2.35:1\nFrame rate                     : 29.970 fps\nColor space                    : YUV\nChroma subsampling             : 4:2:0\nBit depth                      : 8 bits\nScan type                      : Progressive\nCompression mode               : Lossy\nBits/(Pixel*Frame)             : 0.274\nStream size                    : 1.28 GiB (87%)\nWriting library                : XviD 1.2.1 (UTC 2008-12-04)\n\nAudio\nID                             : 1\nFormat                         : AC-3\nFormat/Info                    : Audio Coding 3\nMode extension                 : CM (complete main)\nFormat settings, Endianness    : Big\nCodec ID                       : 2000\nDuration                       : 1h 41mn\nBit rate mode                  : Constant\nBit rate                       : 256 Kbps\nChannel(s)                     : 2 channels\nChannel positions              : Front: L R\nSampling rate                  : 48.0 KHz\nBit depth                      : 16 bits\nCompression mode               : Lossy\nDelay relative to video        : 14ms\nStream size                    : 187 MiB (12%)\nAlignment                      : Split accross interleaves\nInterleave, duration           : 33 ms (1.00 video frame)\nInterleave, preload duration   : 500 ms\n\n\nPlot:\n\nThe special bond that develops between plus-sized inflatable robot Baymax, \nand prodigy Hiro Hamada, who team up with a group of friends to form a band of high-tech heroes.\n\n\nCast:\n\nScott Adsit \t ... Baymax (voice)\nRyan Potter \t ... Hiro (voice)\nDaniel Henney \t ... Tadashi (voice)\nT.J. Miller \t ... Fred (voice) \nDamon Wayans Jr. ... Wasabi (voice) \n\n[img]http://img538.imageshack.us/img538/6793/H8KFXM.png[/img]\n[img]http://img661.imageshack.us/img661/9583/JjJStF.png[/img]\n[img]http://img903.imageshack.us/img903/3168/ee3WNH.png[/img]\n[img]http://img540.imageshack.us/img540/2764/5dxBYy.png[/img]\n[img]http://img537.imageshack.us/img537/1122/NjzusB.png[/img]\n[img]http://img537.imageshack.us/img537/5614/JMFDWe.png\t[/img]\n\n\n\nSiMPLE\nViSiON,SceneLovers,PRESTiGE,SANTi,YanKeeS,COPYxRIGHT,THC,\nLKRG,Kingstoner,REsuRRecTioN,FooKaS,ACAB,Unevano,BigVik,Rapeseed,SAFC,\ngoldadvance,KaN1vE,Pinnz,Wayne,SeeN,jtr,ICONiK,TED\nMr Hive,and most P2P \nGreat Work Guys :D\n\nLOOKING FOR ANYTHING YOU WANT TO LOOK AND SOUND BETTER\n\nCOME FIND US \n&lt;a class=&quot;__cf_email__&quot; href=&quot;/cdn-cgi/l/email-protection&quot; data-cfemail=&quot;30737d0870584543585d51595c1e5d55&quot;&gt;[email&amp;#160;protected]&lt;/a&gt;&lt;script cf-hash='f9e31' type=&quot;text/javascript&quot;&gt;\n/* &lt;![CDATA[ */!function(){try{var t=&quot;currentScript&quot;in document?document.currentScript:function(){for(var t=document.getElementsByTagName(&quot;script&quot;),e=t.length;e--;)if(t[e].getAttribute(&quot;cf-hash&quot;))return t[e]}();if(t&amp;&amp;t.previousSibling){var e,r,n,i,c=t.previousSibling,a=c.getAttribute(&quot;data-cfemail&quot;);if(a){for(e=&quot;&quot;,r=parseInt(a.substr(0,2),16),n=2;a.length-n;n+=2)i=parseInt(a.substr(n,2),16)^r,e+=String.fromCharCode(i);e=document.createTextNode(e),c.parentNode.replaceChild(e,c)}}}catch(u){}}();/* ]]&gt; */&lt;/script&gt;","torrent":{"xt":"urn:btih:aadbb1f3d09d87dfd0e6c2cf5ec046e8cfa66df7","amp;dn":"Big.Hero.6.2014.DVDScr.XVID.AC3.HQ.Hive-CM8","amp;tr":["udp%3A%2F%2Ftracker.openbittorrent.com%3A80","udp%3A%2F%2Fopen.demonii.com%3A1337","udp%3A%2F%2Ftracker.coppersurfer.tk%3A6969","udp%3A%2F%2Fexodus.desync.com%3A6969"],"infoHash":"aadbb1f3d09d87dfd0e6c2cf5ec046e8cfa66df7","infoHashBuffer":{"type":"Buffer","data":[170,219,177,243,208,157,135,223,208,230,194,207,94,192,70,232,207,166,109,247]},"announce":[],"urlList":[]}}